<svg width="40" height="40" viewBox="0 0 40 40" fill="none" xmlns="http://www.w3.org/2000/svg">
<g clip-path="url(#clip0_441_532)">
<path d="M11.767 11.1336H19.3673C19.7175 11.1336 20.0006 10.8499 20.0006 10.5003C20.0006 10.1507 19.7175 9.86694 19.3673 9.86694H11.767C11.4168 9.86694 11.1337 10.1507 11.1337 10.5003C11.1337 10.8499 11.4168 11.1336 11.767 11.1336Z" fill="#9E396E" stroke="#9E396E"/>
<path d="M15.5672 21.2672H10.5003C10.1501 21.2672 9.86697 21.551 9.86697 21.9005C9.86697 22.2501 10.1501 22.5339 10.5003 22.5339H15.5672C15.9174 22.5339 16.2005 22.2501 16.2005 21.9005C16.2005 21.551 15.9174 21.2672 15.5672 21.2672Z" fill="#9E396E" stroke="#9E396E"/>
<path d="M13.6671 18.1005C13.6671 17.7509 13.384 17.4672 13.0338 17.4672H9.23364C8.88339 17.4672 8.60031 17.7509 8.60031 18.1005C8.60031 18.4501 8.88339 18.7338 9.23364 18.7338H13.0338C13.3839 18.7338 13.6671 18.4501 13.6671 18.1005Z" fill="#9E396E" stroke="#9E396E"/>
<path d="M9.23358 14.9338H18.1005C18.4508 14.9338 18.7339 14.65 18.7339 14.3004C18.7339 13.9509 18.4508 13.6671 18.1005 13.6671H9.23358C8.88333 13.6671 8.60025 13.9509 8.60025 14.3004C8.60025 14.65 8.88333 14.9338 9.23358 14.9338Z" fill="#9E396E" stroke="#9E396E"/>
<path d="M20.6339 21.2672H18.1006C17.7503 21.2672 17.4672 21.551 17.4672 21.9005C17.4672 22.2501 17.7503 22.5339 18.1006 22.5339H20.6339C20.9842 22.5339 21.2673 22.2501 21.2673 21.9005C21.2673 21.551 20.9842 21.2672 20.6339 21.2672Z" fill="#9E396E" stroke="#9E396E"/>
<path d="M29.6726 26.0903C29.4256 26.3373 29.4256 26.7388 29.6726 26.9858L31.0166 28.3298C31.1401 28.454 31.3023 28.5154 31.4644 28.5154C31.6259 28.5154 31.788 28.4539 31.9121 28.3298C32.1591 28.0828 32.1591 27.6819 31.9121 27.4343L30.5688 26.0903C30.3211 25.8433 29.9202 25.8433 29.6726 26.0903Z" fill="#9E396E" stroke="#9E396E"/>
<path d="M38.0734 33.5955L33.6348 29.1576C33.5163 29.0385 33.3555 28.972 33.187 28.972H33.1864C33.0186 28.972 32.8571 29.0392 32.738 29.1583L30.9519 30.9545C30.7049 31.2028 30.7062 31.603 30.9544 31.85C31.2034 32.097 31.6036 32.0964 31.85 31.8475L33.1883 30.5023L37.1777 34.4911C37.5362 34.8502 37.7345 35.3271 37.7345 35.8345C37.7345 36.3418 37.5362 36.8193 37.1777 37.1778C36.4374 37.9181 35.2327 37.9194 34.4911 37.1784L26.9858 29.6732C26.7388 29.4262 26.3379 29.4262 26.0903 29.6732C25.8433 29.9209 25.8433 30.3218 26.0903 30.5694L33.5955 38.074C34.2124 38.6915 35.0231 39 35.8338 39C36.6445 39 37.4564 38.6909 38.0734 38.074C38.6712 37.4755 39.0012 36.6806 39.0012 35.8345C39.0012 34.9888 38.6712 34.1933 38.0734 33.5955Z" fill="#9E396E" stroke="#9E396E"/>
<path d="M31.401 16.2005C31.401 7.81928 24.5817 1 16.2005 1C7.81928 1 1 7.81928 1 16.2005C1 24.5817 7.81928 31.401 16.2005 31.401C24.5817 31.401 31.401 24.5816 31.401 16.2005ZM16.2005 30.1342C8.51726 30.1342 2.26673 23.8837 2.26673 16.2005C2.26673 8.51726 8.51726 2.26666 16.2005 2.26666C23.8837 2.26666 30.1342 8.51718 30.1342 16.2004C30.1342 23.8836 23.8837 30.1342 16.2005 30.1342Z" fill="#9E396E" stroke="#9E396E"/>
<path d="M16.1 5C9.97945 5 5 9.97946 5 16.1C5 22.2206 9.97945 27.2 16.1 27.2C22.2206 27.2 27.2 22.2205 27.2 16.1C27.2 9.9794 22.2206 5 16.1 5ZM16.1 26.09C10.5917 26.09 6.11002 21.6084 6.11002 16.1C6.11002 10.5917 10.5917 6.11002 16.1 6.11002C21.6083 6.11002 26.09 10.5917 26.09 16.1C26.09 21.6084 21.6083 26.09 16.1 26.09Z" fill="#9E396E" stroke="#9E396E"/>
<path d="M23.1674 17.4672H15.5671C15.2169 17.4672 14.9338 17.7509 14.9338 18.1005C14.9338 18.4501 15.2169 18.7338 15.5671 18.7338H23.1674C23.5176 18.7338 23.8007 18.4501 23.8007 18.1005C23.8007 17.7509 23.5176 17.4672 23.1674 17.4672Z" fill="#9E396E" stroke="#9E396E"/>
<path d="M23.1674 13.667H20.634C20.2837 13.667 20.0007 13.9507 20.0007 14.3003C20.0007 14.6499 20.2837 14.9336 20.634 14.9336H23.1674C23.5176 14.9336 23.8007 14.6499 23.8007 14.3003C23.8007 13.9507 23.5176 13.667 23.1674 13.667Z" fill="#9E396E" stroke="#9E396E"/>
</g>
<defs>
<clipPath id="clip0_441_532">
<rect width="40" height="40" fill="white"/>
</clipPath>
</defs>
</svg>
