<svg xmlns="http://www.w3.org/2000/svg" xmlns:xlink="http://www.w3.org/1999/xlink"><symbol viewBox="0 0 24 24" fill="none" id="arrow-right" xmlns="http://www.w3.org/2000/svg">
<path d="M13.1674 6.16724L20.6674 13.6672M20.6674 13.6672L13.1674 21.1672M20.6674 13.6672L2.66736 13.6672" stroke="#35333D" stroke-width="1.5" stroke-linecap="round" stroke-linejoin="round"/>
</symbol><symbol viewBox="0 0 25 24" fill="none" id="arrow-right-white" xmlns="http://www.w3.org/2000/svg">
<path d="M13.6675 6.16724L21.1675 13.6672M21.1675 13.6672L13.6675 21.1672M21.1675 13.6672L3.16748 13.6672" stroke="white" stroke-width="1.5" stroke-linecap="round" stroke-linejoin="round"/>
</symbol><symbol viewBox="0 0 10 19" id="facebook" xmlns="http://www.w3.org/2000/svg">
    <!-- Generator: Sketch 3.3.3 (12072) - http://www.bohemiancoding.com/sketch -->
    <title>facebook</title>
    <desc>Created with Sketch.</desc>
    <defs/>
    <g id="cPage-1" stroke="none" stroke-width="1" fill="none" fill-rule="evenodd" xmlns:sketch="http://www.bohemiancoding.com/sketch/ns" sketch:type="MSPage">
        <path d="M9.76616526,0.156928571 L9.76616526,3.10335714 L8.01393311,3.10335714 C7.37405216,3.10335714 6.94250454,3.23728571 6.71929026,3.50514286 C6.49607597,3.773 6.38446883,4.17478571 6.38446883,4.7105 L6.38446883,6.819875 L9.65455811,6.819875 L9.21929026,10.1234464 L6.38446883,10.1234464 L6.38446883,18.5944286 L2.96929026,18.5944286 L2.96929026,10.1234464 L0.123308113,10.1234464 L0.123308113,6.819875 L2.96929026,6.819875 L2.96929026,4.38683929 C2.96929026,3.00291071 3.35619502,1.92962202 4.13000454,1.16697321 C4.90381407,0.404324405 5.93432002,0.023 7.2215224,0.023 C8.3152724,0.023 9.16348668,0.0676428571 9.76616526,0.156928571 L9.76616526,0.156928571 Z" id="cfacebook" fill="#000000" sketch:type="MSShapeGroup"/>
    </g>
</symbol><symbol viewBox="0 0 24 24" fill="none" id="top-right" xmlns="http://www.w3.org/2000/svg">
<path d="M7.42473 6.3033H18.0313M18.0313 6.3033V16.9099M18.0313 6.3033L5.30341 19.0312" stroke="#35333D" stroke-width="1.5" stroke-linecap="round" stroke-linejoin="round"/>
</symbol><symbol viewBox="0 0 16 16" fill="none" id="two-downward-arrows" xmlns="http://www.w3.org/2000/svg">
<path fill-rule="evenodd" clip-rule="evenodd" d="M8 16L2.92357e-07 9.88494L1.46757 8.76127L8 13.7559L14.5304 8.76128L16 9.88494L8 16ZM8 11.2387L5.1999e-07 5.12366L1.46757 4L8 8.99458L14.5304 4L16 5.12208L8 11.2387Z" fill="#35333D"/>
</symbol></svg>